# xmcd CD database file
#
# Track frame offsets:
#	183
#	18158
#	45968
#	58620
#	74533
#	89508
#	104573
#	120145
#	131395
#	146890
#	164848
#	184200
#	198295
#	212928
#	226508
#
# Disc length: 3221 seconds
#
# Revision: 2
# Processed by: cddbd v1.4PL0 Copyright (c) Steve Scherf et al.
# Submitted via: CDex 1.51
#
DISCID=d20c930f
DTITLE=Dells - The Best Of The
DYEAR=1900
DGENRE=
TTITLE0=Oh What A Night
TTITLE1=Stay In My Corner
TTITLE2=Love Is So Simple
TTITLE3=There Is
TTITLE4=Ooh I Love You
TTITLE5=Love Is Blue/I Can Sing A Rainbow
TTITLE6=Please Don't Change Me Now
TTITLE7=Make Sure
TTITLE8=I Can't Do Enough
TTITLE9=Give your Baby A Standing Ovation
TTITLE10=The Love We Had (Stays On My Mind)
TTITLE11=Does Anybody Know I'm Here
TTITLE12=The Changes We Go Through (For Love)
TTITLE13=Always Together
TTITLE14=Wear It On Our Face
EXTD=Master of the Blues
EXTT0=
EXTT1=
EXTT2=
EXTT3=
EXTT4=
EXTT5=
EXTT6=
EXTT7=
EXTT8=
EXTT9=
EXTT10=
EXTT11=
EXTT12=
EXTT13=
EXTT14=
PLAYORDER=
